<?xml version="1.0" encoding="UTF-8" standalone="no"?>
<!-- Created with Inkscape (http://www.inkscape.org/) -->

<svg
   width="650mm"
   height="750mm"
   viewBox="0 0 650 750"
   version="1.1"
   id="svg5"
   inkscape:version="1.1 (c68e22c387, 2021-05-23)"
   sodipodi:docname="Box1.svg"
   xmlns:inkscape="http://www.inkscape.org/namespaces/inkscape"
   xmlns:sodipodi="http://sodipodi.sourceforge.net/DTD/sodipodi-0.dtd"
   xmlns="http://www.w3.org/2000/svg"
   xmlns:svg="http://www.w3.org/2000/svg">
  <sodipodi:namedview
     id="namedview7"
     pagecolor="#ffffff"
     bordercolor="#000000"
     borderopacity="1"
     inkscape:showpageshadow="0"
     inkscape:pageopacity="0"
     inkscape:pagecheckerboard="1"
     inkscape:deskcolor="#505050"
     inkscape:document-units="mm"
     showgrid="true"
     inkscape:zoom="0.49638338"
     inkscape:cx="1783.9034"
     inkscape:cy="1541.1475"
     inkscape:window-width="1920"
     inkscape:window-height="986"
     inkscape:window-x="-11"
     inkscape:window-y="-11"
     inkscape:window-maximized="1"
     inkscape:current-layer="svg5"
     inkscape:pageshadow="0">
    <inkscape:grid
       type="xygrid"
       id="grid686"
       units="mm"
       spacingx="1"
       spacingy="1"
       originx="0"
       originy="0" />
  </sodipodi:namedview>
  <defs
     id="defs2" />
  <g
     inkscape:label="Layer 1"
     inkscape:groupmode="layer"
     id="layer1">
    <g
       id="g1296">
      <path
         id="path8"
         style="fill:none;stroke:#000000;stroke-width:0.8"
         d="m 284,314 v 6 13.6 h 6 v 13.6 h -6 v 13.6 h 6 v 13.6 h -6 V 394 m -64,-74 h 6 11.6 v -6 h 11.6 v 6 h 11.6 v -6 h 11.6 v 6 H 290 m -64,74 v -19.6 h -6 v -13.6 h 6 v -13.6 h -6 v -13.6 h 6 V 320 314 m 64,74 h -17.6 v 6 h -11.6 v -6 h -11.6 v 6 h -11.6 v -6 H 226 220 m 42.5,-31.33333 v 15.66666 h 6 v -15.66666 h -6 m -21,0 v 15.66666 h 6 v -15.66666 h -6 M 260.8,335 h 11.6 v 6 h -11.6 v -6 m -23.2,0 h 11.6 v 6 h -11.6 v -6" />
      <path
         id="path12"
         style="fill:none;stroke:#000000;stroke-width:0.8"
         d="M 362.6,249 H 345 v 6 h -11.6 v -6 h -11.6 v 6 h -11.6 v -6 h -11.6 -6 m 70,60 v -15.6 h -6 v -9.6 h 6 v -9.6 h -6 v -9.6 h 6 v -9.6 -6 m -70,60 h 52.4 17.6 m -70,-60 v 6 9.6 h 6 v 9.6 h -6 v 9.6 h 6 v 9.6 h -6 V 309" />
      <path
         id="path18"
         style="fill:none;stroke:#000000;stroke-width:0.8"
         d="M 446,310 H 426.4 366 m 74,-60 v 6 9.6 h 6 v 9.6 h -6 v 9.6 h 6 v 9.6 h -6 V 310 m -74,-60 h 6 13.6 v 6 h 13.6 v -6 h 13.6 v 6 h 13.6 v -6 H 446 m -74,60 v -15.6 h -6 v -9.6 h 6 v -9.6 h -6 v -9.6 h 6 v -9.6 -6 m 15,34.8 v 9.6 h 6 v -9.6 h -6 m 0,-19.2 v 9.6 h 6 v -9.6 h -6" />
      <path
         id="path26"
         style="fill:none;stroke:#000000;stroke-width:0.8"
         d="M 440,440 H 422.4 370 m 70,-60 v 6 9.6 h -6 v 9.6 h 6 v 9.6 h -6 v 9.6 h 6 V 440 m -70,-60 h 6 11.6 v 6 h 11.6 v -6 h 11.6 v 6 h 11.6 v -6 H 440 m -70,60 v -15.6 h 6 v -9.6 h -6 v -9.6 h 6 v -9.6 h -6 v -9.6 -6 m 21.5,34.8 v 9.6 h 6 v -9.6 h -6 m 0,-19.2 v 9.6 h 6 v -9.6 h -6 m 21,19.2 v 9.6 h 6 v -9.6 h -6 m 0,-19.2 v 9.6 h 6 v -9.6 h -6" />
      <path
         id="path32"
         style="fill:none;stroke:#000000;stroke-width:0.8"
         d="m 286,440 h 60.4 19.6 m -74,-60 v 6 9.6 h -6 v 9.6 h 6 v 9.6 h -6 v 9.6 h 6 V 440 m 74,-60 h -19.6 v 6 h -13.6 v -6 h -13.6 v 6 h -13.6 v -6 H 292 286 m 74,60 v -15.6 h 6 v -9.6 h -6 v -9.6 h 6 v -9.6 h -6 v -9.6 -6 m -21,34.8 v 9.6 h 6 v -9.6 h -6 m 0,-19.2 v 9.6 h 6 v -9.6 h -6" />
      <path
         id="path40"
         style="fill:none;stroke:#000000;stroke-width:0.8"
         d="m 367.6,374 h 52.4 17.6 m -64,-60 v 6 9.6 h -6 v 9.6 h 6 v 9.6 h -6 v 9.6 h 6 V 374 m 64,-54 H 420 v -6 h -11.6 v 6 h -11.6 v -6 h -11.6 v 6 h -11.6 -6 m 64,54 v -15.6 h 6 v -9.6 h -6 v -9.6 h 6 v -9.6 h -6 v -9.6 -6 m -21.5,34.8 v 9.6 h 6 v -9.6 h -6 m 0,-19.2 v 9.6 h 6 v -9.6 h -6 m -21,19.2 v 9.6 h 6 v -9.6 h -6 m 0,-19.2 v 9.6 h 6 v -9.6 h -6" />
      <path
         id="path44"
         style="fill:none;stroke:#000000;stroke-width:0.8"
         d="m 356,320.4 h -21.66667 v -6 h -15.66666 v 6 H 303 297 m 53,54 v -15.6 h 6 v -9.6 h -6 v -9.6 h 6 V 330 h -6 v -9.6 -6 m -53,60 H 334.33333 356 m -53,-60 v 6 9.6 h -6 v 9.6 h 6 v 9.6 h -6 v 9.6 h 6 v 15.6" />
      <path
         id="path48"
         style="fill:none;stroke:#000000;stroke-width:0.8"
         d="M 286.66667,256 H 265 v -6 h -15.66666 v 6 h -15.66667 -6 m 53,54 v -15.6 h 6 v -9.6 h -6 v -9.6 h 6 v -9.6 h -6 v -9.6 -6 m -53,60 H 265 286.66667 m -53,-60 v 6 9.6 h -6 v 9.6 h 6 v 9.6 h -6 v 9.6 h 6 V 310" />
    </g>
  </g>
</svg>
