<?xml version="1.0" encoding="UTF-8" standalone="no"?>
<!-- Created with Inkscape (http://www.inkscape.org/) -->

<svg
   width="650mm"
   height="750mm"
   viewBox="0 0 650 750"
   version="1.1"
   id="svg5"
   inkscape:version="1.1 (c68e22c387, 2021-05-23)"
   sodipodi:docname="generated.svg"
   xmlns:inkscape="http://www.inkscape.org/namespaces/inkscape"
   xmlns:sodipodi="http://sodipodi.sourceforge.net/DTD/sodipodi-0.dtd"
   xmlns="http://www.w3.org/2000/svg"
   xmlns:svg="http://www.w3.org/2000/svg">
  <sodipodi:namedview
     id="namedview7"
     pagecolor="#505050"
     bordercolor="#ffffff"
     borderopacity="1"
     inkscape:showpageshadow="0"
     inkscape:pageopacity="0"
     inkscape:pagecheckerboard="1"
     inkscape:deskcolor="#505050"
     inkscape:document-units="mm"
     showgrid="true"
     inkscape:zoom="0.49638338"
     inkscape:cx="1701.306"
     inkscape:cy="688.98358"
     inkscape:window-width="1920"
     inkscape:window-height="986"
     inkscape:window-x="-11"
     inkscape:window-y="-11"
     inkscape:window-maximized="1"
     inkscape:current-layer="layer1"
     inkscape:pageshadow="0">
    <inkscape:grid
       type="xygrid"
       id="grid686"
       units="mm"
       spacingx="1"
       spacingy="1"
       originx="0"
       originy="0" />
  </sodipodi:namedview>
  <defs
     id="defs2" />
  <g
     inkscape:label="Layer 1"
     inkscape:groupmode="layer"
     id="layer1">
    <path
       id="path42"
       style="fill:none;stroke:#000000;stroke-width:0.8"
       d="m 0,324 h 6 12.086957 v 6 h 12.086956 v -6 H 42.26087 v 6 h 12.086956 v -6 h 12.086957 v 6 h 12.086956 v -6 h 12.086957 v 6 h 12.086954 v -6 h 12.08696 v 6 h 12.08696 v -6 h 12.08695 v 6 h 12.08696 v -6 h 12.08695 v 6 h 12.08696 l 0,-6 h 12.08696 v 6 h 12.08695 v -6 h 12.08696 v 6 h 12.08696 v -6 h 12.08695 v 6 h 12.08696 l 0,-6 h 12.08696 v 6 h 12.08695 v -6 H 290 M 6,0 V 6 17.777778 H 0 V 29.555556 H 6 V 41.333333 H 0 V 53.111111 H 6 V 64.888889 H 0 V 76.666667 H 6 V 88.444444 H 0 V 100.22222 H 6 V 112 H 0 v 11.77778 h 6 v 11.77778 H 0 v 11.77777 h 6 v 11.77778 H 0 v 11.77778 h 6 v 11.77778 H 0 v 11.77777 h 6 v 11.77778 H 0 V 218 h 6 v 11.77778 H 0 v 11.77778 l 6,0 v 11.77777 H 0 v 11.77778 h 6 v 11.77778 H 0 v 11.77778 h 6 v 11.77777 H 0 v 11.77778 H 6 V 330 M 290,6 H 271.91304 V 0 h -12.08695 v 6 h -12.08696 l 0,-6 H 235.65217 V 6 H 223.56522 V 0 H 211.47826 V 6 H 199.3913 V 0 h -12.08695 v 6 h -12.08696 l 0,-6 H 163.13043 V 6 H 151.04348 V 0 H 138.95652 V 6 H 126.86957 V 0 H 114.78261 V 6 H 102.69565 V 0 H 90.608696 V 6 H 78.521739 V 0 H 66.434783 V 6 H 54.347826 V 0 H 42.26087 V 6 H 30.173913 V 0 H 18.086957 V 6 H 6 0 m 284,324 v -17.77778 h 6 v -11.77778 h -6 v -11.77777 h 6 v -11.77778 h -6 v -11.77778 h 6 v -11.77778 h -6 v -11.77777 l 6,0 v -11.77778 h -6 V 218 h 6 v -11.77778 h -6 v -11.77778 h 6 v -11.77777 h -6 v -11.77778 h 6 v -11.77778 h -6 v -11.77778 h 6 v -11.77777 h -6 v -11.77778 h 6 V 112 h -6 v -11.77778 h 6 V 88.444444 h -6 V 76.666667 h 6 V 64.888889 h -6 V 53.111111 h 6 V 41.333333 h -6 V 29.555556 h 6 V 17.777778 h -6 V 6 0 m -69.5,300.63158 v 11.68421 h 6 v -11.68421 h -6 m 0,-23.36842 v 11.68421 h 6 v -11.68421 h -6 m 0,-23.36842 v 11.68421 h 6 v -11.68421 h -6 m 0,-23.36842 v 11.68421 h 6 v -11.68421 h -6 m 0,-23.36843 v 11.68422 h 6 v -11.68422 h -6 m 0,-23.36842 v 11.68421 h 6 v -11.68421 h -6 m 0,-23.36842 v 11.68421 h 6 v -11.68421 h -6 m 0,-23.36842 v 11.68421 h 6 v -11.68421 h -6 m 0,-23.36842 v 11.68421 h 6 v -11.68421 h -6 M 142,300.63158 v 11.68421 h 6 v -11.68421 h -6 m 0,-23.36842 v 11.68421 h 6 v -11.68421 h -6 m 0,-23.36842 v 11.68421 h 6 v -11.68421 h -6 m 0,-23.36842 v 11.68421 h 6 v -11.68421 h -6 m 0,-23.36843 v 11.68422 h 6 v -11.68422 h -6 m 0,-23.36842 v 11.68421 h 6 v -11.68421 h -6 m 0,-23.36842 v 11.68421 h 6 v -11.68421 h -6 m 0,-23.36842 v 11.68421 h 6 v -11.68421 h -6 m 0,-23.36842 v 11.68421 h 6 v -11.68421 h -6 M 69.5,300.63158 v 11.68421 h 6 v -11.68421 h -6 m 0,-23.36842 v 11.68421 h 6 v -11.68421 h -6 m 0,-23.36842 v 11.68421 h 6 v -11.68421 h -6 m 0,-23.36842 v 11.68421 h 6 v -11.68421 h -6 m 0,-23.36843 v 11.68422 h 6 v -11.68422 h -6 m 0,-23.36842 v 11.68421 h 6 v -11.68421 h -6 m 0,-23.36842 v 11.68421 h 6 v -11.68421 h -6 m 0,-23.36842 v 11.68421 h 6 v -11.68421 h -6 m 0,-23.36842 v 11.68421 h 6 v -11.68421 h -6 M 259.82609,96 h 12.08695 v 6 h -12.08695 v -6 m -24.17392,0 h 12.08696 v 6 h -12.08696 v -6 m -24.17391,0 h 12.08696 v 6 h -12.08696 v -6 m -24.17391,0 h 12.08695 v 6 h -12.08695 v -6 m -24.17392,0 h 12.08696 v 6 h -12.08696 v -6 m -24.17391,0 h 12.08696 v 6 h -12.08696 v -6 m -24.17391,0 h 12.08696 v 6 h -12.08696 v -6 m -24.173914,0 h 12.086954 v 6 H 90.608696 v -6 m -24.173913,0 h 12.086956 v 6 H 66.434783 V 96 M 42.26087,96 h 12.086956 v 6 H 42.26087 v -6 m -24.173913,0 h 12.086956 v 6 H 18.086957 v -6" />
    <path
       id="path46"
       style="fill:none;stroke:#000000;stroke-width:0.8"
       d="M 630,0 H 611.91304 V 6 H 599.82609 V 0 H 587.73913 V 6 H 575.65217 V 0 H 563.56522 V 6 H 551.47826 V 0 H 539.3913 V 6 H 527.30435 V 0 h -12.08696 l 0,6 H 503.13043 V 0 H 491.04348 V 6 H 478.95652 V 0 H 466.86957 V 6 H 454.78261 V 0 H 442.69565 V 6 H 430.6087 V 0 H 418.52174 V 6 H 406.43478 V 0 H 394.34783 V 6 H 382.26087 V 0 H 370.17391 V 6 H 358.08696 V 0 H 346 340 M 630,45 V 28 h -6 V 17 h 6 V 6 0 M 340,45 H 611.91304 630 M 340,0 v 6 11 h 6 v 11 h -6 v 17" />
    <path
       id="path51"
       style="fill:none;stroke:#000000;stroke-width:0.8"
       d="m 635,55 h -17.77778 v 6 h -11.77778 v -6 h -11.77777 v 6 h -11.77778 v -6 h -11.77778 v 6 h -11.77778 v -6 h -11.77777 v 6 H 534.77778 V 55 H 523 v 6 h -11.77778 v -6 h -11.77778 v 6 h -11.77777 v -6 h -11.77778 v 6 h -11.77778 v -6 h -11.77778 v 6 h -11.77777 v -6 h -11.77778 v 6 H 417 v -6 h -11.77778 v 6 h -11.77778 v -6 h -11.77777 v 6 h -11.77778 v -6 h -11.77778 v 6 h -11.77778 v -6 h -11.77777 v 6 H 322.77778 V 55 H 311 305 m 324,45 V 83 h 6 V 72 h -6 V 61 55 M 305,100 H 617.22222 635 M 311,55 v 6 11 h -6 v 11 h 6 v 17 m 90,-28 v 11 h 6 V 72 h -6" />
    <path
       id="path58"
       style="fill:none;stroke:#000000;stroke-width:0.8"
       d="m 630,105 h -18.087 v 6 h -12.0869 v -6 h -12.087 v 6 h -12.0869 v -6 h -12.087 v 6 h -12.0869 v -6 h -12.087 v 6 h -12.087 v -6 h -12.0869 v 6 h -12.087 v -6 h -12.0869 v 6 h -12.087 v -6 h -12.0869 v 6 h -12.087 v -6 h -12.0869 v 6 h -12.087 v -6 h -12.087 v 6 h -12.0869 v -6 h -12.087 v 6 h -12.0869 v -6 h -12.087 v 6 H 358.087 v -6 H 346 340 m 290,45 v -17 h -6 v -11 h 6 v -11 -6 M 340,150 H 611.913 630 M 340,105 v 6 11 h 6 v 11 h -6 v 17 m 69.5,-28 v 11 h 6 v -11 h -6 m 72.5,0 v 11 h 6 v -11 h -6 m 72.5,0 v 11 h 6 v -11 h -6" />
    <path
       id="path63"
       style="fill:none;stroke:#000000;stroke-width:0.8"
       d="m 333.7778,154 h 6 11.7778 v 6 h 11.7778 v -6 h 11.7777 v 6 h 11.7778 v -6 h 11.7778 v 6 h 11.7778 v -6 h 11.7777 v 6 H 434 v -6 h 11.7778 v 6 h 11.7778 v -6 h 11.7778 v 6 h 11.7777 v -6 h 11.7778 v 6 h 11.7778 v -6 h 11.7778 v 6 h 11.7777 v -6 H 540 v 6 h 11.7778 v -6 h 11.7778 v 6 h 11.7778 v -6 h 11.7777 v 6 h 11.7778 v -6 h 11.7778 v 6 h 11.7778 v -6 h 11.7777 v 6 H 646 v -6 h 17.7778 m -324,45 v -17 h -6 v -11 h 6 v -11 -6 m 324,45 H 646 333.7778 m 324,-45 v 6 11 h 6 v 11 h -6 v 17 m -96,-28 v 11 h 6 v -11 h -6" />
    <path
       id="path70"
       style="fill:none;stroke:#000000;stroke-width:0.8"
       d="m 353.4679,216 h 6 12.087 v -6 h 12.0869 v 6 h 12.087 v -6 h 12.0869 v 6 h 12.087 v -6 h 12.0869 v 6 h 12.087 v -6 h 12.087 v 6 h 12.0869 v -6 h 12.087 v 6 h 12.0869 v -6 h 12.087 v 6 h 12.0869 v -6 h 12.087 v 6 h 12.0869 v -6 h 12.087 v 6 h 12.087 v -6 h 12.0869 v 6 h 12.087 v -6 h 12.0869 v 6 h 12.087 v -6 h 12.0869 v 6 h 18.087 m -284,39 v -17 h -6 v -11 h 6 v -11 -6 m 284,45 h -18.087 -271.913 m 284,-45 v 6 11 h 6 v 11 h -6 v 17 m -69.5,-28 v 11 h 6 v -11 h -6 m -72.5,0 v 11 h 6 v -11 h -6 m -72.5,0 v 11 h 6 v -11 h -6" />
    <path
       id="path74"
       style="fill:none;stroke:#000000;stroke-width:0.8"
       d="m 572.4153,362 h -17.6842 v -6 h -11.6842 v 6 h -11.6842 v -6 h -11.6842 v 6 h -11.6843 v -6 H 496.31 v 6 h -11.6842 v -6 h -11.6842 v 6 h -11.6842 v -6 h -11.6842 v 6 H 437.889 v -6 h -11.6842 v 6 h -11.6842 v -6 h -11.6842 v 6 h -11.6843 v -6 h -11.6842 v 6 h -11.6842 v -6 h -11.6842 v 6 h -11.6842 -6 m 228,39 v -17 h 6 v -11 h -6 v -11 -6 m -228,45 h 216.3158 17.6842 m -228,-45 v 6 11 h -6 v 11 h 6 v 17" />
    <path
       id="path78"
       style="fill:none;stroke:#000000;stroke-width:0.8"
       d="m 579.6784,290 h -17.6842 v -6 H 550.31 v 6 h -11.6842 v -6 h -11.6842 v 6 h -11.6843 v -6 h -11.6842 v 6 h -11.6842 v -6 h -11.6842 v 6 h -11.6842 v -6 h -11.6842 v 6 h -11.6842 v -6 h -11.6842 v 6 h -11.6842 v -6 h -11.6842 v 6 h -11.6843 v -6 H 386.731 v 6 h -11.6842 v -6 h -11.6842 v 6 h -11.6842 -6 m 228,39 v -17 h 6 v -11 h -6 v -11 -6 m -228,45 h 216.3158 17.6842 m -228,-45 v 6 11 h -6 v 11 h 6 v 17" />
    <path
       id="path82"
       style="fill:none;stroke:#000000;stroke-width:0.8"
       d="m 564.6258,436 h -17.6842 v -6 h -11.6842 v 6 h -11.6842 v -6 H 511.889 v 6 h -11.6843 v -6 h -11.6842 v 6 h -11.6842 v -6 h -11.6842 v 6 h -11.6842 v -6 h -11.6842 v 6 h -11.6842 v -6 h -11.6842 v 6 h -11.6842 v -6 h -11.6842 v 6 h -11.6843 v -6 h -11.6842 v 6 h -11.6842 v -6 H 348.31 v 6 h -11.6842 -6 m 228,39 v -17 h 6 v -11 h -6 v -11 -6 m -228,45 h 216.3158 17.6842 m -228,-45 v 6 11 h -6 v 11 h 6 v 17" />
  </g>
</svg>
