<?xml version="1.0" encoding="UTF-8" standalone="no"?>
<!-- Created with Inkscape (http://www.inkscape.org/) -->

<svg
   width="650mm"
   height="750mm"
   viewBox="0 0 650 750"
   version="1.1"
   id="svg5"
   inkscape:version="1.1 (c68e22c387, 2021-05-23)"
   sodipodi:docname="CatToy.svg"
   xmlns:inkscape="http://www.inkscape.org/namespaces/inkscape"
   xmlns:sodipodi="http://sodipodi.sourceforge.net/DTD/sodipodi-0.dtd"
   xmlns="http://www.w3.org/2000/svg"
   xmlns:svg="http://www.w3.org/2000/svg">
  <sodipodi:namedview
     id="namedview7"
     pagecolor="#505050"
     bordercolor="#ffffff"
     borderopacity="1"
     inkscape:showpageshadow="0"
     inkscape:pageopacity="0"
     inkscape:pagecheckerboard="1"
     inkscape:deskcolor="#505050"
     inkscape:document-units="mm"
     showgrid="true"
     inkscape:zoom="0.35355339"
     inkscape:cx="451.13413"
     inkscape:cy="1125.714"
     inkscape:window-width="1920"
     inkscape:window-height="986"
     inkscape:window-x="-11"
     inkscape:window-y="-11"
     inkscape:window-maximized="1"
     inkscape:current-layer="layer1"
     inkscape:pageshadow="0">
    <inkscape:grid
       type="xygrid"
       id="grid686"
       units="mm"
       spacingx="1"
       spacingy="1"
       originx="0"
       originy="0" />
  </sodipodi:namedview>
  <defs
     id="defs2" />
  <g
     inkscape:label="Layer 1"
     inkscape:groupmode="layer"
     id="layer1">
    <path
       id="rect6609"
       style="fill:none;fill-opacity:1;stroke:#000000;stroke-width:1;stroke-miterlimit:4;stroke-dasharray:none;stroke-opacity:1"
       d="M 92.5,353.5 A 20,20 0 0 0 72.499672,373.49981 20,20 0 0 0 92.5,393.50014 h 40.00014 A 20,20 0 0 0 152.49996,373.49981 20,20 0 0 0 132.50014,353.5 Z m 97.99998,-132.00016 a 20,20 0 0 0 -19.96261,19.0004 h -0.0372 v 0.99994 50.00004 h -70.00038 a 20,20 0 0 0 -19.99981,19.99981 20,20 0 0 0 19.99981,19.99982 h 70.00038 v 49.00011 h 0.0372 a 20,20 0 0 0 -0.0372,0.99994 20,20 0 0 0 19.99981,20.00032 20,20 0 0 0 19.99981,-20.00032 20,20 0 0 0 -0.0253,-0.99994 h 0.0253 v -49.00011 -39.99963 -50.00004 -0.99994 h -0.0253 a 20,20 0 0 0 -19.97451,-19.0004 z m -154.999838,8.99997 a 19.999999,19.999999 0 0 0 -20.000329,20.00033 v 119.99991 a 20,20 0 0 0 20.000329,19.99981 20,20 0 0 0 19.999811,-19.99981 v -100.0001 h 69.999867 a 20,20 0 0 0 20.00033,-19.99981 20,20 0 0 0 -20.00033,-20.00033 z M 0.5,210.5 h 225 v 200 H 0.5 Z" />
    <path
       id="rect933-4"
       style="fill:none;stroke:#000000"
       d="m 240.5,210.5 h 225 v 200 h -225 z m 112,163 a 20,20 0 0 1 -20,20 20,20 0 0 1 -20,-20 20,20 0 0 1 20,-20 20,20 0 0 1 20,20 z m 8,-62 a 20,20 0 0 1 -20,20 20,20 0 0 1 -20,-20 20,20 0 0 1 20,-20 20,20 0 0 1 20,20 z m 90,70 a 20,20 0 0 1 -20,20 20,20 0 0 1 -20,-20 20,20 0 0 1 20,-20 20,20 0 0 1 20,20 z m -155,-11 a 20,20 0 0 1 -20,20 20,20 0 0 1 -20,-20 20,20 0 0 1 20,-20 20,20 0 0 1 20,20 z m 155,-129 a 20,20 0 0 1 -20,20 20,20 0 0 1 -20,-20 20,20 0 0 1 20,-20 20,20 0 0 1 20,20 z m -65,9 a 20,20 0 0 1 -20,20 20,20 0 0 1 -20,-20 20,20 0 0 1 20,-20 20,20 0 0 1 20,20 z m -90,0 a 20,20 0 0 1 -20,20 20,20 0 0 1 -20,-20 20,20 0 0 1 20,-20 20,20 0 0 1 20,20 z" />
    <path
       id="rect933-4-7"
       style="fill:none;stroke:#000000"
       d="m 0.5,0.5 h 225 v 200 H 0.5 Z m 115.40708,163.77467 a 23.5,23.5 0 0 1 -23.499998,23.5 23.5,23.5 0 0 1 -23.5,-23.5 23.5,23.5 0 0 1 23.5,-23.5 23.5,23.5 0 0 1 23.499998,23.5 z M 165.49996,6.9998615 V 77.00024 H 75.499768 v 49.99953 h 89.500482 v 68.50021 H 215.5 V 105.49979 6.9998615 Z M 67,140.5 h 90 v 50 H 67 Z M 100.00029,78.518369 A 23.5,23.5 0 0 0 76.49992,102.01822 23.5,23.5 0 0 0 100.00029,125.5186 23.5,23.5 0 0 0 100.5,125.5 v 0.0186 h 41.00008 0.49971 V 125.5 a 23.5,23.5 0 0 0 23.00015,-23.48178 23.5,23.5 0 0 0 -23.00015,-23.49365 v -0.0062 H 141.50008 100.5 v 0.0062 a 23.5,23.5 0 0 0 -0.49971,-0.0062 z M 167,170.91219 a 23.5,23.5 0 0 0 23.49986,23.50037 23.5,23.5 0 0 0 23.50037,-23.50037 23.5,23.5 0 0 0 -0.0186,-0.49971 h 0.0186 v -21.00027 -0.49971 h -0.0186 a 23.5,23.5 0 0 0 -23.48177,-23.00015 23.5,23.5 0 0 0 -23.49365,23.00015 h -0.006 v 0.49971 21.00027 h 0.006 a 23.5,23.5 0 0 0 -0.006,0.49971 z M 12,160.49964 a 23.5,23.5 0 0 0 23.49985,23.50037 23.5,23.5 0 0 0 23.50038,-23.50037 23.5,23.5 0 0 0 -0.0186,-0.49971 h 0.0186 v -41.00007 -0.49971 h -0.0186 A 23.5,23.5 0 0 0 35.49985,95.5 23.5,23.5 0 0 0 12.0062,118.50015 h -0.006 v 0.49971 41.00007 h 0.006 a 23.5,23.5 0 0 0 -0.006,0.49971 z M 167,53.499691 a 23.5,23.5 0 0 0 23.49985,23.500369 23.5,23.5 0 0 0 23.50038,-23.500369 23.5,23.5 0 0 0 -0.0186,-0.49971 h 0.0186 V 31.999711 31.5 h -0.0186 A 23.5,23.5 0 0 0 190.49985,8.499856 23.5,23.5 0 0 0 167.0062,31.5 h -0.006 v 0.499711 21.00027 h 0.006 a 23.5,23.5 0 0 0 -0.006,0.49971 z M 84.000252,16.999996 a 23.5,23.5 0 0 0 -23.500376,23.499856 23.5,23.5 0 0 0 23.500376,23.500374 23.5,23.5 0 0 0 0.499711,-0.0186 v 0.0186 h 41.000077 0.49971 v -0.0186 A 23.5,23.5 0 0 0 148.9999,40.499852 23.5,23.5 0 0 0 125.99975,17.006197 v -0.0062 h -0.49971 -41.000077 v 0.0062 a 23.5,23.5 0 0 0 -0.499711,-0.0062 z M 59,40.5 A 23.5,23.5 0 0 1 35.5,64 23.5,23.5 0 0 1 12,40.5 23.5,23.5 0 0 1 35.5,17 23.5,23.5 0 0 1 59,40.5 Z M 10.499829,15.499829 10.5,185.5 h 50 L 60.499876,65.499876 H 150.50007 V 15.499829 H 60.499876 Z" />
    <rect
       style="fill:none;fill-opacity:1;stroke:#000000;stroke-width:1;stroke-miterlimit:4;stroke-dasharray:none;stroke-opacity:1"
       id="rect933-4-7-4"
       width="225"
       height="200"
       x="240.5"
       y="0.5"
       ry="0" />
  </g>
</svg>
