<?xml version="1.0" encoding="UTF-8" standalone="no"?>
<!-- Created with Inkscape (http://www.inkscape.org/) -->

<svg
   width="650mm"
   height="750mm"
   viewBox="0 0 650 750"
   version="1.1"
   id="svg5"
   inkscape:version="1.1 (c68e22c387, 2021-05-23)"
   sodipodi:docname="generated.svg"
   xmlns:inkscape="http://www.inkscape.org/namespaces/inkscape"
   xmlns:sodipodi="http://sodipodi.sourceforge.net/DTD/sodipodi-0.dtd"
   xmlns="http://www.w3.org/2000/svg"
   xmlns:svg="http://www.w3.org/2000/svg">
  <sodipodi:namedview
     id="namedview7"
     pagecolor="#505050"
     bordercolor="#ffffff"
     borderopacity="1"
     inkscape:showpageshadow="0"
     inkscape:pageopacity="0"
     inkscape:pagecheckerboard="1"
     inkscape:deskcolor="#505050"
     inkscape:document-units="mm"
     showgrid="true"
     inkscape:zoom="0.49638338"
     inkscape:cx="1661.0145"
     inkscape:cy="596.31328"
     inkscape:window-width="1920"
     inkscape:window-height="986"
     inkscape:window-x="-11"
     inkscape:window-y="-11"
     inkscape:window-maximized="1"
     inkscape:current-layer="layer1"
     inkscape:pageshadow="0">
    <inkscape:grid
       type="xygrid"
       id="grid686"
       units="mm"
       spacingx="1"
       spacingy="1"
       originx="0"
       originy="0" />
  </sodipodi:namedview>
  <defs
     id="defs2" />
  <g
     inkscape:label="Layer 1"
     inkscape:groupmode="layer"
     id="layer1">
    <path
       style="fill:none;stroke:#000000;stroke-width:0.8"
       d="M 18.086956521739133,79.5 30.173913043478265,79.5 30.173913043478265,85.5 18.086956521739133,85.5 18.086956521739133,79.5 "
       id="path1" />
    <path
       style="fill:none;stroke:#000000;stroke-width:0.8"
       d="M 42.26086956521739,79.5 54.34782608695652,79.5 54.34782608695652,85.5 42.26086956521739,85.5 42.26086956521739,79.5 "
       id="path2" />
    <path
       style="fill:none;stroke:#000000;stroke-width:0.8"
       d="M 66.43478260869566,79.5 78.52173913043478,79.5 78.52173913043478,85.5 66.43478260869566,85.5 66.43478260869566,79.5 "
       id="path3" />
    <path
       style="fill:none;stroke:#000000;stroke-width:0.8"
       d="M 90.6086956521739,79.5 102.69565217391303,79.5 102.69565217391303,85.5 90.6086956521739,85.5 90.6086956521739,79.5 "
       id="path4" />
    <path
       style="fill:none;stroke:#000000;stroke-width:0.8"
       d="M 114.78260869565219,79.5 126.86956521739131,79.5 126.86956521739131,85.5 114.78260869565219,85.5 114.78260869565219,79.5 "
       id="path5" />
    <path
       style="fill:none;stroke:#000000;stroke-width:0.8"
       d="M 138.95652173913044,79.5 151.04347826086956,79.5 151.04347826086956,85.5 138.95652173913044,85.5 138.95652173913044,79.5 "
       id="path6" />
    <path
       style="fill:none;stroke:#000000;stroke-width:0.8"
       d="M 163.1304347826087,79.5 175.2173913043478,79.5 175.2173913043478,85.5 163.1304347826087,85.5 163.1304347826087,79.5 "
       id="path7" />
    <path
       style="fill:none;stroke:#000000;stroke-width:0.8"
       d="M 187.30434782608697,79.5 199.3913043478261,79.5 199.3913043478261,85.5 187.30434782608697,85.5 187.30434782608697,79.5 "
       id="path8" />
    <path
       style="fill:none;stroke:#000000;stroke-width:0.8"
       d="M 211.47826086956522,79.5 223.56521739130434,79.5 223.56521739130434,85.5 211.47826086956522,85.5 211.47826086956522,79.5 "
       id="path9" />
    <path
       style="fill:none;stroke:#000000;stroke-width:0.8"
       d="M 235.65217391304347,79.5 247.7391304347826,79.5 247.7391304347826,85.5 235.65217391304347,85.5 235.65217391304347,79.5 "
       id="path10" />
    <path
       style="fill:none;stroke:#000000;stroke-width:0.8"
       d="M 259.82608695652175,79.5 271.9130434782609,79.5 271.9130434782609,85.5 259.82608695652175,85.5 259.82608695652175,79.5 "
       id="path11" />
    <path
       style="fill:none;stroke:#000000;stroke-width:0.8"
       d="M 69.5,98.05263157894737 69.5,110.60526315789474 75.5,110.60526315789474 75.5,98.05263157894737 69.5,98.05263157894737 "
       id="path12" />
    <path
       style="fill:none;stroke:#000000;stroke-width:0.8"
       d="M 69.5,123.15789473684211 69.5,135.71052631578948 75.5,135.71052631578948 75.5,123.15789473684211 69.5,123.15789473684211 "
       id="path13" />
    <path
       style="fill:none;stroke:#000000;stroke-width:0.8"
       d="M 69.5,148.26315789473685 69.5,160.81578947368422 75.5,160.81578947368422 75.5,148.26315789473685 69.5,148.26315789473685 "
       id="path14" />
    <path
       style="fill:none;stroke:#000000;stroke-width:0.8"
       d="M 69.5,173.36842105263156 69.5,185.92105263157896 75.5,185.92105263157896 75.5,173.36842105263156 69.5,173.36842105263156 "
       id="path15" />
    <path
       style="fill:none;stroke:#000000;stroke-width:0.8"
       d="M 69.5,198.4736842105263 69.5,211.0263157894737 75.5,211.0263157894737 75.5,198.4736842105263 69.5,198.4736842105263 "
       id="path16" />
    <path
       style="fill:none;stroke:#000000;stroke-width:0.8"
       d="M 69.5,223.57894736842104 69.5,236.1315789473684 75.5,236.1315789473684 75.5,223.57894736842104 69.5,223.57894736842104 "
       id="path17" />
    <path
       style="fill:none;stroke:#000000;stroke-width:0.8"
       d="M 69.5,248.68421052631578 69.5,261.2368421052631 75.5,261.2368421052631 75.5,248.68421052631578 69.5,248.68421052631578 "
       id="path18" />
    <path
       style="fill:none;stroke:#000000;stroke-width:0.8"
       d="M 69.5,273.7894736842105 69.5,286.3421052631579 75.5,286.3421052631579 75.5,273.7894736842105 69.5,273.7894736842105 "
       id="path19" />
    <path
       style="fill:none;stroke:#000000;stroke-width:0.8"
       d="M 69.5,298.89473684210526 69.5,311.4473684210526 75.5,311.4473684210526 75.5,298.89473684210526 69.5,298.89473684210526 "
       id="path20" />
    <path
       style="fill:none;stroke:#000000;stroke-width:0.8"
       d="M 142.0,98.05263157894737 142.0,110.60526315789474 148.0,110.60526315789474 148.0,98.05263157894737 142.0,98.05263157894737 "
       id="path21" />
    <path
       style="fill:none;stroke:#000000;stroke-width:0.8"
       d="M 142.0,123.15789473684211 142.0,135.71052631578948 148.0,135.71052631578948 148.0,123.15789473684211 142.0,123.15789473684211 "
       id="path22" />
    <path
       style="fill:none;stroke:#000000;stroke-width:0.8"
       d="M 142.0,148.26315789473685 142.0,160.81578947368422 148.0,160.81578947368422 148.0,148.26315789473685 142.0,148.26315789473685 "
       id="path23" />
    <path
       style="fill:none;stroke:#000000;stroke-width:0.8"
       d="M 142.0,173.36842105263156 142.0,185.92105263157896 148.0,185.92105263157896 148.0,173.36842105263156 142.0,173.36842105263156 "
       id="path24" />
    <path
       style="fill:none;stroke:#000000;stroke-width:0.8"
       d="M 142.0,198.4736842105263 142.0,211.0263157894737 148.0,211.0263157894737 148.0,198.4736842105263 142.0,198.4736842105263 "
       id="path25" />
    <path
       style="fill:none;stroke:#000000;stroke-width:0.8"
       d="M 142.0,223.57894736842104 142.0,236.1315789473684 148.0,236.1315789473684 148.0,223.57894736842104 142.0,223.57894736842104 "
       id="path26" />
    <path
       style="fill:none;stroke:#000000;stroke-width:0.8"
       d="M 142.0,248.68421052631578 142.0,261.2368421052631 148.0,261.2368421052631 148.0,248.68421052631578 142.0,248.68421052631578 "
       id="path27" />
    <path
       style="fill:none;stroke:#000000;stroke-width:0.8"
       d="M 142.0,273.7894736842105 142.0,286.3421052631579 148.0,286.3421052631579 148.0,273.7894736842105 142.0,273.7894736842105 "
       id="path28" />
    <path
       style="fill:none;stroke:#000000;stroke-width:0.8"
       d="M 142.0,298.89473684210526 142.0,311.4473684210526 148.0,311.4473684210526 148.0,298.89473684210526 142.0,298.89473684210526 "
       id="path29" />
    <path
       style="fill:none;stroke:#000000;stroke-width:0.8"
       d="M 214.5,98.05263157894737 214.5,110.60526315789474 220.5,110.60526315789474 220.5,98.05263157894737 214.5,98.05263157894737 "
       id="path30" />
    <path
       style="fill:none;stroke:#000000;stroke-width:0.8"
       d="M 214.5,123.15789473684211 214.5,135.71052631578948 220.5,135.71052631578948 220.5,123.15789473684211 214.5,123.15789473684211 "
       id="path31" />
    <path
       style="fill:none;stroke:#000000;stroke-width:0.8"
       d="M 214.5,148.26315789473685 214.5,160.81578947368422 220.5,160.81578947368422 220.5,148.26315789473685 214.5,148.26315789473685 "
       id="path32" />
    <path
       style="fill:none;stroke:#000000;stroke-width:0.8"
       d="M 214.5,173.36842105263156 214.5,185.92105263157896 220.5,185.92105263157896 220.5,173.36842105263156 214.5,173.36842105263156 "
       id="path33" />
    <path
       style="fill:none;stroke:#000000;stroke-width:0.8"
       d="M 214.5,198.4736842105263 214.5,211.0263157894737 220.5,211.0263157894737 220.5,198.4736842105263 214.5,198.4736842105263 "
       id="path34" />
    <path
       style="fill:none;stroke:#000000;stroke-width:0.8"
       d="M 214.5,223.57894736842104 214.5,236.1315789473684 220.5,236.1315789473684 220.5,223.57894736842104 214.5,223.57894736842104 "
       id="path35" />
    <path
       style="fill:none;stroke:#000000;stroke-width:0.8"
       d="M 214.5,248.68421052631578 214.5,261.2368421052631 220.5,261.2368421052631 220.5,248.68421052631578 214.5,248.68421052631578 "
       id="path36" />
    <path
       style="fill:none;stroke:#000000;stroke-width:0.8"
       d="M 214.5,273.7894736842105 214.5,286.3421052631579 220.5,286.3421052631579 220.5,273.7894736842105 214.5,273.7894736842105 "
       id="path37" />
    <path
       style="fill:none;stroke:#000000;stroke-width:0.8"
       d="M 214.5,298.89473684210526 214.5,311.4473684210526 220.5,311.4473684210526 220.5,298.89473684210526 214.5,298.89473684210526 "
       id="path38" />
    <path
       style="fill:none;stroke:#000000;stroke-width:0.8"
       d="M 284,330.0 284,312.22222222222223 290,312.22222222222223 290,300.44444444444446 284,300.44444444444446 284,288.6666666666667 290,288.6666666666667 290,276.8888888888889 284,276.8888888888889 284,265.11111111111114 290,265.11111111111114 290,253.33333333333334 284,253.33333333333334 284,241.55555555555557 290,241.55555555555554 290,229.77777777777777 284,229.77777777777777 284,218.0 290,218.0 290,206.22222222222223 284,206.22222222222223 284,194.44444444444446 290,194.44444444444446 290,182.66666666666669 284,182.66666666666669 284,170.8888888888889 290,170.8888888888889 290,159.11111111111111 284,159.11111111111111 284,147.33333333333334 290,147.33333333333334 290,135.55555555555557 284,135.55555555555557 284,123.77777777777779 290,123.77777777777779 290,112.0 284,112.0 284,100.22222222222223 290,100.22222222222223 290,88.44444444444446 284,88.44444444444446 284,76.66666666666667 290,76.66666666666667 290,64.88888888888889 284,64.88888888888889 284,53.111111111111114 290,53.111111111111114 290,41.333333333333336 284,41.333333333333336 284,29.555555555555557 290,29.555555555555557 290,17.77777777777778 284,17.77777777777778 284,6.0 284,0 "
       id="path39" />
    <path
       style="fill:none;stroke:#000000;stroke-width:0.8"
       d="M 290.0,6 271.9130434782609,6 271.9130434782609,0 259.82608695652175,0 259.82608695652175,6 247.73913043478262,6 247.7391304347826,0 235.65217391304347,0 235.65217391304347,6 223.56521739130434,6 223.56521739130434,0 211.47826086956522,0 211.47826086956522,6 199.3913043478261,6 199.3913043478261,0 187.30434782608697,0 187.30434782608697,6 175.21739130434784,6 175.2173913043478,0 163.1304347826087,0 163.1304347826087,6 151.04347826086956,6 151.04347826086956,0 138.95652173913044,0 138.95652173913044,6 126.86956521739131,6 126.86956521739131,0 114.78260869565217,0 114.78260869565217,6 102.69565217391305,6 102.69565217391305,0 90.6086956521739,0 90.6086956521739,6 78.52173913043478,6 78.52173913043478,0 66.43478260869566,0 66.43478260869566,6 54.34782608695652,6 54.34782608695652,0 42.26086956521739,0 42.26086956521739,6 30.17391304347826,6 30.17391304347826,0 18.086956521739133,0 18.086956521739133,6 6.0,6 0,6 "
       id="path40" />
    <path
       style="fill:none;stroke:#000000;stroke-width:0.8"
       d="M 6,0 6,6.0 6,17.77777777777778 0,17.77777777777778 0,29.555555555555557 6,29.555555555555557 6,41.333333333333336 0,41.333333333333336 0,53.111111111111114 6,53.111111111111114 6,64.88888888888889 0,64.88888888888889 0,76.66666666666667 6,76.66666666666667 6,88.44444444444446 0,88.44444444444446 0,100.22222222222223 6,100.22222222222223 6,112.0 0,112.0 0,123.77777777777779 6,123.77777777777779 6,135.55555555555557 0,135.55555555555557 0,147.33333333333334 6,147.33333333333334 6,159.11111111111111 0,159.11111111111111 0,170.8888888888889 6,170.8888888888889 6,182.66666666666669 0,182.66666666666669 0,194.44444444444446 6,194.44444444444446 6,206.22222222222223 0,206.22222222222223 0,218.0 6,218.0 6,229.77777777777777 0,229.77777777777777 0,241.55555555555554 6,241.55555555555557 6,253.33333333333334 0,253.33333333333334 0,265.11111111111114 6,265.11111111111114 6,276.8888888888889 0,276.8888888888889 0,288.6666666666667 6,288.6666666666667 6,300.44444444444446 0,300.44444444444446 0,312.22222222222223 6,312.22222222222223 6,330.0 "
       id="path41" />
    <path
       style="fill:none;stroke:#000000;stroke-width:0.8"
       d="M 0,324 6.0,324 18.086956521739133,324 18.086956521739133,330 30.17391304347826,330 30.17391304347826,324 42.26086956521739,324 42.26086956521739,330 54.34782608695652,330 54.34782608695652,324 66.43478260869566,324 66.43478260869566,330 78.52173913043478,330 78.52173913043478,324 90.6086956521739,324 90.6086956521739,330 102.69565217391305,330 102.69565217391305,324 114.78260869565217,324 114.78260869565217,330 126.86956521739131,330 126.86956521739131,324 138.95652173913044,324 138.95652173913044,330 151.04347826086956,330 151.04347826086956,324 163.1304347826087,324 163.1304347826087,330 175.2173913043478,330 175.21739130434784,324 187.30434782608697,324 187.30434782608697,330 199.3913043478261,330 199.3913043478261,324 211.47826086956522,324 211.47826086956522,330 223.56521739130434,330 223.56521739130434,324 235.65217391304347,324 235.65217391304347,330 247.7391304347826,330 247.73913043478262,324 259.82608695652175,324 259.82608695652175,330 271.9130434782609,330 271.9130434782609,324 290.0,324 "
       id="path42" />
    <path
       style="fill:none;stroke:#000000;stroke-width:0.8"
       d="M 340,0 340,6.0 340,17.0 346,17.0 346,28.0 340,28.0 340,45.0 "
       id="path43" />
    <path
       style="fill:none;stroke:#000000;stroke-width:0.8"
       d="M 340,45 611.9130434782609,45 630.0,45 "
       id="path44" />
    <path
       style="fill:none;stroke:#000000;stroke-width:0.8"
       d="M 630,45.0 630,28.0 624,28.0 624,17.0 630,17.0 630,6.0 630,0 "
       id="path45" />
    <path
       style="fill:none;stroke:#000000;stroke-width:0.8"
       d="M 630.0,0 611.9130434782609,0 611.9130434782609,6 599.8260869565217,6 599.8260869565217,0 587.7391304347826,0 587.7391304347826,6 575.6521739130435,6 575.6521739130435,0 563.5652173913044,0 563.5652173913044,6 551.4782608695652,6 551.4782608695652,0 539.3913043478261,0 539.3913043478261,6 527.304347826087,6 527.304347826087,0 515.2173913043479,0 515.2173913043478,6 503.1304347826087,6 503.1304347826087,0 491.04347826086956,0 491.04347826086956,6 478.95652173913044,6 478.95652173913044,0 466.8695652173913,0 466.8695652173913,6 454.7826086956522,6 454.7826086956522,0 442.69565217391306,0 442.69565217391306,6 430.6086956521739,6 430.6086956521739,0 418.52173913043475,0 418.52173913043475,6 406.4347826086956,6 406.4347826086956,0 394.3478260869565,0 394.3478260869565,6 382.2608695652174,6 382.2608695652174,0 370.17391304347825,0 370.17391304347825,6 358.0869565217391,6 358.0869565217391,0 346.0,0 340,0 "
       id="path46" />
    <path
       id="path51"
       style="fill:none;stroke:#000000;stroke-width:0.8"
       d="m 630.5,112 h -17.77778 v 6 h -11.77778 v -6 h -11.77777 v 6 h -11.77778 v -6 h -11.77778 v 6 h -11.77778 v -6 h -11.77777 v 6 h -11.77778 v -6 H 518.5 v 6 h -11.77778 v -6 h -11.77778 v 6 h -11.77777 v -6 h -11.77778 v 6 h -11.77778 v -6 h -11.77778 v 6 h -11.77777 v -6 h -11.77778 v 6 H 412.5 v -6 h -11.77778 v 6 h -11.77778 v -6 h -11.77777 v 6 h -11.77778 v -6 h -11.77778 v 6 h -11.77778 v -6 h -11.77777 v 6 h -11.77778 v -6 H 306.5 h -6 m 324,45 v -17 h 6 v -11 h -6 v -11 -6 m -324,45 H 612.72222 630.5 m -324,-45 v 6 11 h -6 v 11 h 6 v 17 M 380,129 v 11 h 6 v -11 h -6" />
    <path
       id="path58"
       style="fill:none;stroke:#000000;stroke-width:0.8"
       d="m 610.5,52 h -18.087 v 6 h -12.0869 v -6 h -12.087 v 6 h -12.0869 v -6 h -12.087 v 6 h -12.0869 v -6 h -12.087 v 6 h -12.087 v -6 h -12.0869 v 6 h -12.087 v -6 h -12.0869 v 6 h -12.087 v -6 h -12.0869 v 6 h -12.087 v -6 h -12.0869 v 6 h -12.087 v -6 h -12.087 v 6 h -12.0869 v -6 h -12.087 v 6 h -12.0869 v -6 h -12.087 v 6 H 338.587 v -6 h -12.087 -6 m 290,45 V 80 h -6 V 69 h 6 V 58 52 m -290,45 H 592.413 610.5 m -290,-45 v 6 11 h 6 v 11 h -6 V 97 M 390,69 v 11 h 6 V 69 h -6 m 72.5,0 v 11 h 6 V 69 h -6 m 72.5,0 v 11 h 6 V 69 h -6" />
    <path
       id="path63"
       style="fill:none;stroke:#000000;stroke-width:0.8"
       d="m 304.5,180 h 6 11.7778 v 6 h 11.7778 v -6 h 11.7777 v 6 h 11.7778 v -6 h 11.7778 v 6 h 11.7778 v -6 h 11.7777 v 6 h 11.7778 v -6 H 416.5 v 6 h 11.7778 v -6 h 11.7778 v 6 h 11.7777 v -6 h 11.7778 v 6 h 11.7778 v -6 h 11.7778 v 6 h 11.7777 v -6 h 11.7778 v 6 H 522.5 v -6 h 11.7778 v 6 h 11.7778 v -6 h 11.7777 v 6 h 11.7778 v -6 h 11.7778 v 6 h 11.7778 v -6 h 11.7777 v 6 h 11.7778 v -6 H 634.5 m -324,45 v -17 h -6 v -11 h 6 v -11 -6 m 324,45 H 616.7222 304.5 m 324,-45 v 6 11 h 6 v 11 h -6 v 17 M 549,197 v 11 h 6 v -11 h -6" />
    <path
       id="path70"
       style="fill:none;stroke:#000000;stroke-width:0.8"
       d="m 324,308 h 6 12.087 v -6 h 12.0869 v 6 h 12.087 v -6 h 12.0869 v 6 h 12.087 v -6 h 12.0869 v 6 h 12.087 v -6 h 12.087 v 6 h 12.0869 v -6 h 12.087 v 6 h 12.0869 v -6 h 12.087 v 6 h 12.0869 v -6 h 12.087 v 6 h 12.0869 v -6 h 12.087 v 6 h 12.087 v -6 h 12.0869 v 6 h 12.087 v -6 h 12.0869 v 6 h 12.087 v -6 h 12.0869 v 6 H 614 m -284,39 v -17 h -6 v -11 h 6 v -11 -6 m 284,45 H 595.913 324 m 284,-45 v 6 11 h 6 v 11 h -6 v 17 m -69.5,-28 v 11 h 6 v -11 h -6 m -72.5,0 v 11 h 6 v -11 h -6 m -72.5,0 v 11 h 6 v -11 h -6" />
    <path
       id="path74"
       style="fill:none;stroke:#000000;stroke-width:0.8"
       d="m 564.5,361 h -18.5526 v -6 h -12.5527 v 6 h -12.5526 v -6 h -12.5526 v 6 h -12.5527 v -6 h -12.5526 v 6 h -12.5526 v -6 h -12.5527 v 6 h -12.5526 v -6 h -12.5526 v 6 h -12.5526 v -6 h -12.5527 v 6 h -12.5526 v -6 h -12.5526 v 6 h -12.5527 v -6 h -12.5526 v 6 h -12.5526 v -6 h -12.5527 v 6 H 320 314 m 244.5,39 v -17 h 6 v -11 h -6 v -11 -6 M 314,400 H 545.9474 564.5 M 320,355 v 6 11 h -6 v 11 h 6 v 17" />
    <path
       id="path78"
       style="fill:none;stroke:#000000;stroke-width:0.8"
       d="m 538.3684,420 h -18.5526 v -6 h -12.5527 v 6 h -12.5526 v -6 h -12.5526 v 6 h -12.5527 v -6 h -12.5526 v 6 H 444.5 v -6 h -12.5527 v 6 h -12.5526 v -6 h -12.5526 v 6 h -12.5526 v -6 h -12.5527 v 6 h -12.5526 v -6 h -12.5526 v 6 h -12.5527 v -6 h -12.5526 v 6 h -12.5526 v -6 H 306.421 v 6 h -12.5526 -6 m 244.5,39 v -17 h 6 v -11 h -6 v -11 -6 m -244.5,45 h 231.9474 18.5526 m -244.5,-45 v 6 11 h -6 v 11 h 6 v 17" />
    <path
       id="path82"
       style="fill:none;stroke:#000000;stroke-width:0.8"
       d="m 616.2368,246 h -18.5526 v -6 h -12.5527 v 6 h -12.5526 v -6 h -12.5526 v 6 h -12.5527 v -6 H 534.921 v 6 h -12.5526 v -6 h -12.5527 v 6 h -12.5526 v -6 h -12.5526 v 6 h -12.5526 v -6 h -12.5527 v 6 h -12.5526 v -6 H 434.5 v 6 h -12.5527 v -6 h -12.5526 v 6 h -12.5526 v -6 h -12.5527 v 6 h -12.5526 -6 m 244.5,39 v -17 h 6 v -11 h -6 v -11 -6 m -244.5,45 h 231.9474 18.5526 m -244.5,-45 v 6 11 h -6 v 11 h 6 v 17" />
  </g>
</svg>
