<?xml version="1.0" encoding="UTF-8" standalone="no"?>
<!-- Created with Inkscape (http://www.inkscape.org/) -->

<svg
   width="650mm"
   height="750mm"
   viewBox="0 0 650 750"
   version="1.1"
   id="svg5"
   inkscape:version="1.1 (c68e22c387, 2021-05-23)"
   sodipodi:docname="generated.svg"
   xmlns:inkscape="http://www.inkscape.org/namespaces/inkscape"
   xmlns:sodipodi="http://sodipodi.sourceforge.net/DTD/sodipodi-0.dtd"
   xmlns="http://www.w3.org/2000/svg"
   xmlns:svg="http://www.w3.org/2000/svg">
  <sodipodi:namedview
     id="namedview7"
     pagecolor="#ffffff"
     bordercolor="#000000"
     borderopacity="1"
     inkscape:showpageshadow="0"
     inkscape:pageopacity="0"
     inkscape:pagecheckerboard="1"
     inkscape:deskcolor="#505050"
     inkscape:document-units="mm"
     showgrid="true"
     inkscape:zoom="0.35099605"
     inkscape:cx="1069.8126"
     inkscape:cy="461.54365"
     inkscape:window-width="1920"
     inkscape:window-height="986"
     inkscape:window-x="-11"
     inkscape:window-y="-11"
     inkscape:window-maximized="1"
     inkscape:current-layer="layer1"
     inkscape:pageshadow="0">
    <inkscape:grid
       type="xygrid"
       id="grid686"
       units="mm"
       spacingx="1"
       spacingy="1"
       originx="0"
       originy="0" />
  </sodipodi:namedview>
  <defs
     id="defs2" />
  <g
     inkscape:label="Layer 1"
     inkscape:groupmode="layer"
     id="layer1">
    <path
       id="path4"
       style="fill:none;stroke:#000000;stroke-width:0.8"
       d="M 200,0 H 187.93548 0 M 200,50 V 38.571429 h -6 v -5.428572 h 6 v -5.428571 h -6 v -5.428572 h 6 v -5.428571 h -6 v -5.428572 h 6 V 6 0 M 0,50 H 187.93548 200 M 0,0 v 6 5.428571 h 6 v 5.428572 H 0 v 5.428571 h 6 v 5.428572 H 0 v 5.428571 h 6 v 5.428572 H 0 V 50" />
    <path
       id="path4-6"
       style="fill:none;stroke:#000000;stroke-width:0.8"
       d="M 200,55 H 187.93548 0 m 200,50 V 93.571429 h -6 v -5.428572 h 6 v -5.428571 h -6 v -5.428572 h 6 v -5.428571 h -6 v -5.428572 h 6 V 61 55 M 0,105 H 187.93548 200 M 0,55 v 6 5.428571 h 6 v 5.428572 H 0 v 5.428571 h 6 v 5.428572 H 0 v 5.428571 h 6 v 5.428572 H 0 V 105" />
    <path
       id="path16-1"
       style="fill:none;stroke:#000000;stroke-width:0.8;stroke-miterlimit:4;stroke-dasharray:none"
       d="M 150,315 V 312.63657 271 m 0,0 h -6 -5.42857 v -6 h -5.42857 v 6 h -5.42857 v -6 h -5.42858 v 6 h -5.42857 v -6 h -5.42857 v 6 H 100 m 0,0 V 268.31429 221 m 0,0 h -6 -5.42857 v -6 h -5.42857 v 6 h -5.42857 v -6 h -5.42858 v 6 h -5.42857 v -6 h -5.42857 v 6 H 50 M 0,315 H 150 M 50,221 V 218.31429 171 M 0,171 V 307.26515 315 M 50,171 h -6 -5.42857 v -6 h -5.42857 v 6 h -5.42857 v -6 h -5.42858 v 6 h -5.42857 v -6 h -5.42857 v 6 H 0" />
    <path
       id="path16-1-4"
       style="fill:none;stroke:#000000;stroke-width:0.8;stroke-miterlimit:4;stroke-dasharray:none"
       d="M 155,315 V 312.63657 271 m 0,0 h 6 5.42857 v -6 h 5.42857 v 6 h 5.42857 v -6 h 5.42858 v 6 h 5.42857 v -6 h 5.42857 v 6 H 205 m 0,0 V 268.31429 221 m 0,0 h 6 5.42857 v -6 h 5.42857 v 6 h 5.42857 v -6 h 5.42858 v 6 h 5.42857 v -6 h 5.42857 v 6 H 255 m 50,94 H 155 M 255,221 V 218.31429 171 m 50,0 V 307.26515 315 M 255,171 h 6 5.42857 v -6 h 5.42857 v 6 h 5.42857 v -6 h 5.42858 v 6 h 5.42857 v -6 h 5.42857 v 6 H 305" />
    <path
       id="path4-1"
       style="fill:none;stroke:#000000;stroke-width:0.8"
       d="M 200,110 H 187.93548 0 m 200,50 v -11.42857 h -6 v -5.42857 h 6 v -5.42857 h -6 v -5.42858 h 6 v -5.42857 h -6 v -5.42857 h 6 V 116 110 M 0,160 H 187.93548 200 M 0,110 v 6 5.42857 h 6 v 5.42857 H 0 v 5.42857 h 6 v 5.42858 H 0 v 5.42857 h 6 v 5.42857 H 0 V 160" />
  </g>
</svg>
