<?xml version="1.0" encoding="UTF-8" standalone="no"?>
<!-- Created with Inkscape (http://www.inkscape.org/) -->

<svg
   width="650mm"
   height="750mm"
   viewBox="0 0 650 750"
   version="1.1"
   id="svg5"
   inkscape:version="1.1 (c68e22c387, 2021-05-23)"
   sodipodi:docname="generated.svg"
   xmlns:inkscape="http://www.inkscape.org/namespaces/inkscape"
   xmlns:sodipodi="http://sodipodi.sourceforge.net/DTD/sodipodi-0.dtd"
   xmlns="http://www.w3.org/2000/svg"
   xmlns:svg="http://www.w3.org/2000/svg">
  <sodipodi:namedview
     id="namedview7"
     pagecolor="#505050"
     bordercolor="#ffffff"
     borderopacity="1"
     inkscape:showpageshadow="0"
     inkscape:pageopacity="0"
     inkscape:pagecheckerboard="1"
     inkscape:deskcolor="#505050"
     inkscape:document-units="mm"
     showgrid="true"
     inkscape:zoom="0.70199211"
     inkscape:cx="801.29106"
     inkscape:cy="-133.90464"
     inkscape:window-width="1920"
     inkscape:window-height="986"
     inkscape:window-x="-11"
     inkscape:window-y="-11"
     inkscape:window-maximized="1"
     inkscape:current-layer="layer1"
     inkscape:pageshadow="0">
    <inkscape:grid
       type="xygrid"
       id="grid686"
       units="mm"
       spacingx="1"
       spacingy="1"
       originx="0"
       originy="0" />
  </sodipodi:namedview>
  <defs
     id="defs2" />
  <g
     inkscape:label="Layer 1"
     inkscape:groupmode="layer"
     id="layer1">
    <path
       id="path13"
       style="fill:none;stroke:#000000;stroke-width:0.8"
       d="M 0,50 H 218.10811 230 M 0,0 v 6 5.428571 h 6 v 5.428572 H 0 v 5.428571 h 6 v 5.428572 H 0 v 5.428571 h 6 v 5.428572 H 0 V 50 M 230,0 H 218.10811 0 M 230,50 V 38.571429 h -6 v -5.428572 h 6 v -5.428571 h -6 v -5.428572 h 6 v -5.428571 h -6 v -5.428572 h 6 V 6 0 m -60.5,33.142857 v 5.428572 h 6 v -5.428572 h -6 m 0,-10.857143 v 5.428572 h 6 v -5.428572 h -6 m 0,-10.857143 v 5.428572 h 6 v -5.428572 h -6 M 112,33.142857 v 5.428572 h 6 v -5.428572 h -6 m 0,-10.857143 v 5.428572 h 6 v -5.428572 h -6 m 0,-10.857143 v 5.428572 h 6 v -5.428572 h -6 M 54.5,33.142857 v 5.428572 h 6 v -5.428572 h -6 m 0,-10.857143 v 5.428572 h 6 v -5.428572 h -6 m 0,-10.857143 v 5.428572 h 6 v -5.428572 h -6" />
    <path
       id="path23"
       style="fill:none;stroke:#000000;stroke-width:0.8"
       d="m 240,50 h 162 12 M 246,0 v 6 5.428571 h -6 v 5.428572 h 6 v 5.428571 h -6 v 5.428572 h 6 v 5.428571 h -6 v 5.428572 h 6 V 50 M 414,0 H 402 240 M 408,50 V 38.571429 h 6 v -5.428572 h -6 v -5.428571 h 6 v -5.428572 h -6 v -5.428571 h 6 v -5.428572 h -6 V 6 0 m -56.16,33.142857 v 5.428572 h 6 v -5.428572 h -6 m 0,-10.857143 v 5.428572 h 6 v -5.428572 h -6 m 0,-10.857143 v 5.428572 h 6 v -5.428572 h -6 m -57.42,21.714286 v 5.428572 h 6 v -5.428572 h -6 m 0,-10.857143 v 5.428572 h 6 v -5.428572 h -6 m 0,-10.857143 v 5.428572 h 6 v -5.428572 h -6" />
    <path
       id="path36"
       style="fill:none;stroke:#000000;stroke-width:0.8"
       d="M 230,160 H 218.10811 0 m 230,-50 v 6 5.42857 h -6 v 5.42857 h 6 v 5.42858 h -6 v 5.42857 h 6 v 5.42857 h -6 v 5.42857 h 6 V 160 M 0,110 H 218.10811 230 M 0,160 v -11.42857 h 6 v -5.42857 H 0 v -5.42857 h 6 v -5.42857 H 0 v -5.42858 h 6 v -5.42857 H 0 V 116 110 m 54.5,33.14286 v 5.42857 h 6 v -5.42857 h -6 m 0,-10.85714 v 5.42857 h 6 v -5.42857 h -6 m 0,-10.85715 v 5.42857 h 6 v -5.42857 h -6 m 57.5,21.71429 v 5.42857 h 6 v -5.42857 h -6 m 0,-10.85714 v 5.42857 h 6 v -5.42857 h -6 m 0,-10.85715 v 5.42857 h 6 v -5.42857 h -6 m 57.5,21.71429 v 5.42857 h 6 v -5.42857 h -6 m 0,-10.85714 v 5.42857 h 6 v -5.42857 h -6 m 0,-10.85715 v 5.42857 h 6 v -5.42857 h -6" />
    <g
       id="g948"
       transform="translate(-480,55)">
      <path
         id="path46"
         style="fill:none;stroke:#000000;stroke-width:0.8"
         d="M 894,50 H 882 720 M 888,0 v 6 5.428571 h 6 v 5.428572 h -6 v 5.428571 h 6 v 5.428572 h -6 v 5.428571 h 6 v 5.428572 h -6 V 50 M 720,0 h 162 12 M 726,50 V 38.571429 h -6 v -5.428572 h 6 v -5.428571 h -6 v -5.428572 h 6 v -5.428571 h -6 v -5.428572 h 6 V 6 0 m 50.16,33.142857 v 5.428572 h 6 v -5.428572 h -6 m 0,-10.857143 v 5.428572 h 6 v -5.428572 h -6 m 0,-10.857143 v 5.428572 h 6 v -5.428572 h -6 m 57.42,21.714286 v 5.428572 h 6 v -5.428572 h -6 m 0,-10.857143 v 5.428572 h 6 v -5.428572 h -6 m 0,-10.857143 v 5.428572 h 6 v -5.428572 h -6" />
    </g>
    <path
       id="path53"
       style="fill:none;stroke:#000000;stroke-width:0.8"
       d="M 0,165 H 218.1081 230 M 6,215.00003 V 203.57144 H 0 v -5.42858 h 6 v -5.42857 H 0 v -5.42857 h 6 v -5.42857 H 0 v -5.42857 H 6 V 171 165 m 224,50.00003 H 218.1081 0 M 224,165 v 6 5.42858 h 6 v 5.42857 h -6 v 5.42857 h 6 v 5.42857 h -6 v 5.42857 h 6 v 5.42858 h -6 v 11.42859 m -54.5,-25.00002 v 25.00002 h 6 v -25.00002 h -6 m -57.5,0 v 25.00002 h 6 v -25.00002 h -6 m -57.5,0 v 25.00002 h 6 v -25.00002 h -6" />
    <path
       id="path60"
       style="fill:none;stroke:#000000;stroke-width:0.8"
       d="M 0,54.571429 H 218.1081 230 M 6,104.57143 V 93.142859 H 0 v -5.42857 H 6 V 82.285715 H 0 V 76.857143 H 6 V 71.428572 H 0 V 66 h 6 v -5.428571 -6 M 230,104.57143 H 218.1081 0 M 224,54.571429 v 6 V 66 h 6 v 5.428572 h -6 v 5.428571 h 6 v 5.428572 h -6 v 5.428574 h 6 v 5.42857 h -6 V 104.57143 M 169.5,79.571429 v 25.000001 h 6 V 79.571429 h -6 m -57.5,0 v 25.000001 h 6 V 79.571429 h -6 m -57.5,0 v 25.000001 h 6 V 79.571429 h -6" />
    <path
       id="path66"
       style="fill:none;stroke:#000000;stroke-width:0.8"
       d="m 239,165 h 162 12 m -168,50 v -11.42857 h -6 v -5.42857 h 6 v -5.42857 h -6 v -5.42858 h 6 v -5.42857 h -6 v -5.42857 h 6 V 171 165 m 168,50 H 401 239 m 168,-50 v 6 5.42857 h 6 v 5.42857 h -6 v 5.42857 h 6 v 5.42858 h -6 v 5.42857 h 6 v 5.42857 h -6 V 215 m -56.16,-50 v 25 h 6 v -25 h -6 m -57.42,0 v 25 h 6 v -25 h -6" />
    <path
       id="path72"
       style="fill:none;stroke:#000000;stroke-width:0.8"
       d="M 414,110 H 252 240 m 168,49.99998 v -11.42855 h 6 v -5.42857 h -6 v -5.42857 h 6 v -5.42858 h -6 v -5.42857 h 6 v -5.42857 h -6 V 116 110 m -168,49.99998 h 12 162 M 246,110 v 6 5.42857 h -6 v 5.42857 h 6 v 5.42857 h -6 v 5.42858 h 6 v 5.42857 h -6 v 5.42857 h 6 v 11.42855 M 302.16,110 v 25 h -6 v -25 h 6 m 57.42,0 v 25 h -6 v -25 h 6" />
    <path
       id="path78"
       style="fill:none;stroke:#000000;stroke-width:0.8"
       d="m 239,220 h 162 12 m -168,50 v -11.42857 h -6 v -5.42857 h 6 v -5.42857 h -6 v -5.42858 h 6 v -5.42857 h -6 v -5.42857 h 6 V 226 220 m 168,50 H 401 239 m 168,-50 v 6 5.42857 h 6 v 5.42857 h -6 v 5.42857 h 6 v 5.42858 h -6 v 5.42857 h 6 v 5.42857 h -6 V 270 m -56.16,-50 v 25 h 6 v -25 h -6 m -57.42,0 v 25 h 6 v -25 h -6" />
  </g>
</svg>
