<?xml version="1.0" encoding="UTF-8" standalone="no"?>
<!-- Created with Inkscape (http://www.inkscape.org/) -->

<svg
   width="650mm"
   height="750mm"
   viewBox="0 0 650 750"
   version="1.1"
   id="svg5"
   inkscape:version="1.1 (c68e22c387, 2021-05-23)"
   sodipodi:docname="generated.svg"
   xmlns:inkscape="http://www.inkscape.org/namespaces/inkscape"
   xmlns:sodipodi="http://sodipodi.sourceforge.net/DTD/sodipodi-0.dtd"
   xmlns="http://www.w3.org/2000/svg"
   xmlns:svg="http://www.w3.org/2000/svg">
  <sodipodi:namedview
     id="namedview7"
     pagecolor="#505050"
     bordercolor="#ffffff"
     borderopacity="1"
     inkscape:showpageshadow="0"
     inkscape:pageopacity="0"
     inkscape:pagecheckerboard="1"
     inkscape:deskcolor="#505050"
     inkscape:document-units="mm"
     showgrid="true"
     inkscape:zoom="0.32"
     inkscape:cx="1035.9375"
     inkscape:cy="881.25"
     inkscape:window-width="1920"
     inkscape:window-height="986"
     inkscape:window-x="-11"
     inkscape:window-y="-11"
     inkscape:window-maximized="1"
     inkscape:current-layer="layer1"
     inkscape:pageshadow="0">
    <inkscape:grid
       type="xygrid"
       id="grid686"
       units="mm"
       spacingx="1"
       spacingy="1"
       originx="0"
       originy="0" />
  </sodipodi:namedview>
  <defs
     id="defs2" />
  <g
     inkscape:label="Layer 1"
     inkscape:groupmode="layer"
     id="layer1">
    <path
       id="path19"
       style="fill:none;stroke:#000000;stroke-width:0.8"
       d="M 0,80 H 218.10811 230 M 0,0 v 6 6.181818 h 6 v 6.181818 H 0 v 6.181819 h 6 v 6.181818 H 0 v 6.181818 h 6 v 6.181818 H 0 v 6.181818 h 6 v 6.181818 H 0 v 6.181819 h 6 v 6.181818 H 0 V 80 M 230,0 H 218.10811 0 M 230,80 V 67.818182 h -6 v -6.181818 h 6 v -6.181819 h -6 v -6.181818 h 6 v -6.181818 h -6 v -6.181818 h 6 v -6.181818 h -6 v -6.181818 h 6 v -6.181819 h -6 v -6.181818 h 6 V 6 0 m -61.88,61.636364 v 6.181818 h 6 v -6.181818 h -6 m 0,-12.363637 v 6.181818 h 6 v -6.181818 h -6 m 0,-12.363636 v 6.181818 h 6 v -6.181818 h -6 m 0,-12.363636 v 6.181818 h 6 v -6.181818 h -6 m 0,-12.363637 v 6.181818 h 6 v -6.181818 h -6 M 112,61.636364 v 6.181818 h 6 v -6.181818 h -6 m 0,-12.363637 v 6.181818 h 6 v -6.181818 h -6 m 0,-12.363636 v 6.181818 h 6 v -6.181818 h -6 m 0,-12.363636 v 6.181818 h 6 v -6.181818 h -6 m 0,-12.363637 v 6.181818 h 6 v -6.181818 h -6 M 55.88,61.636364 v 6.181818 h 6 v -6.181818 h -6 m 0,-12.363637 v 6.181818 h 6 v -6.181818 h -6 m 0,-12.363636 v 6.181818 h 6 v -6.181818 h -6 m 0,-12.363636 v 6.181818 h 6 v -6.181818 h -6 m 0,-12.363637 v 6.181818 h 6 v -6.181818 h -6" />
    <path
       id="path33"
       style="fill:none;stroke:#000000;stroke-width:0.8"
       d="m 240.4,80 h 162 12 M 246.4,0 v 6 6.181818 h -6 v 6.181818 h 6 v 6.181819 h -6 v 6.181818 h 6 v 6.181818 h -6 v 6.181818 h 6 v 6.181818 h -6 v 6.181818 h 6 v 6.181819 h -6 v 6.181818 h 6 V 80 m 168,-80 h -12 -162 m 168,80 V 67.818182 h 6 v -6.181818 h -6 v -6.181819 h 6 v -6.181818 h -6 v -6.181818 h 6 v -6.181818 h -6 v -6.181818 h 6 v -6.181818 h -6 v -6.181819 h 6 v -6.181818 h -6 V 6 0 m -56.16,61.636364 v 6.181818 h 6 v -6.181818 h -6 m 0,-12.363637 v 6.181818 h 6 v -6.181818 h -6 m 0,-12.363636 v 6.181818 h 6 v -6.181818 h -6 m 0,-12.363636 v 6.181818 h 6 v -6.181818 h -6 m 0,-12.363637 v 6.181818 h 6 v -6.181818 h -6 m -55.68,49.454546 v 6.181818 h 6 v -6.181818 h -6 m 0,-12.363637 v 6.181818 h 6 v -6.181818 h -6 m 0,-12.363636 v 6.181818 h 6 v -6.181818 h -6 m 0,-12.363636 v 6.181818 h 6 v -6.181818 h -6 m 0,-12.363637 v 6.181818 h 6 v -6.181818 h -6" />
    <path
       id="path52"
       style="fill:none;stroke:#000000;stroke-width:0.8"
       d="M 230.4,170.4 H 218.50811 0.40000001 M 230.4,90.4 v 6.000002 6.181818 h -6 v 6.18181 h 6 v 6.18182 h -6 v 6.18182 h 6 v 6.18182 h -6 v 6.18182 h 6 v 6.18181 h -6 v 6.18182 h 6 v 6.18182 h -6 v 6.18182 h 6 V 170.4 M 0.40000001,90.4 H 218.50811 230.4 M 0.40000001,170.4 V 158.21818 H 6.4 v -6.18182 H 0.40000001 v -6.18182 H 6.4 v -6.18182 H 0.40000001 v -6.18181 H 6.4 v -6.18182 H 0.40000001 v -6.18182 H 6.4 v -6.18182 H 0.40000001 v -6.18182 H 6.4 v -6.18181 H 0.40000001 V 96.400002 90.4 M 56.28,152.03636 v 6.18182 h 6 v -6.18182 h -6 m 0,-12.36364 v 6.18182 h 6 v -6.18182 h -6 m 0,-12.36363 v 6.18182 h 6 v -6.18182 h -6 m 0,-12.36364 v 6.18182 h 6 v -6.18182 h -6 m 0,-12.36363 v 6.18181 h 6 v -6.18181 h -6 m 56.12,49.45454 v 6.18182 h 6 v -6.18182 h -6 m 0,-12.36364 v 6.18182 h 6 v -6.18182 h -6 m 0,-12.36363 v 6.18182 h 6 v -6.18182 h -6 m 0,-12.36364 v 6.18182 h 6 v -6.18182 h -6 m 0,-12.36363 v 6.18181 h 6 v -6.18181 h -6 m 56.12,49.45454 v 6.18182 h 6 v -6.18182 h -6 m 0,-12.36364 v 6.18182 h 6 v -6.18182 h -6 m 0,-12.36363 v 6.18182 h 6 v -6.18182 h -6 m 0,-12.36364 v 6.18182 h 6 v -6.18182 h -6 m 0,-12.36363 v 6.18181 h 6 v -6.18181 h -6" />
    <path
       id="path66"
       style="fill:none;stroke:#000000;stroke-width:0.8"
       d="m 414.4,170.4 h -12 -162 m 168,-80 v 6 6.18182 h 6 v 6.18182 h -6 v 6.18182 h 6 v 6.18181 h -6 v 6.18182 h 6 v 6.18182 h -6 v 6.18182 h 6 v 6.18182 h -6 v 6.18181 h 6 v 6.18182 h -6 V 170.4 m -168,-80 h 162 12 m -168,80 v -12.18182 h -6 v -6.18182 h 6 v -6.18181 h -6 v -6.18182 h 6 v -6.18182 h -6 v -6.18182 h 6 v -6.18182 h -6 v -6.18181 h 6 v -6.18182 h -6 v -6.18182 h 6 V 96.4 v -6 m 50.16,61.63636 v 6.18182 h 6 v -6.18182 h -6 m 0,-12.36363 v 6.18182 h 6 v -6.18182 h -6 m 0,-12.36364 v 6.18182 h 6 v -6.18182 h -6 m 0,-12.36363 v 6.18181 h 6 v -6.18181 h -6 m 0,-12.36364 v 6.18182 h 6 v -6.18182 h -6 m 55.68,49.45454 v 6.18182 h 6 v -6.18182 h -6 m 0,-12.36363 v 6.18182 h 6 v -6.18182 h -6 m 0,-12.36364 v 6.18182 h 6 v -6.18182 h -6 m 0,-12.36363 v 6.18181 h 6 v -6.18181 h -6 m 0,-12.36364 v 6.18182 h 6 v -6.18182 h -6" />
    <path
       id="path73"
       style="fill:none;stroke:#000000;stroke-width:0.8"
       d="M 0.40000001,180.4 H 218.5081 230.4 m -224,80 V 248.21818 H 0.40000001 v -6.18182 H 6.4 v -6.18181 H 0.40000001 v -6.18182 H 6.4 v -6.18182 H 0.40000001 v -6.18182 H 6.4 v -6.18182 H 0.40000001 v -6.18181 H 6.4 v -6.18182 H 0.40000001 v -6.18182 H 6.4 V 186.4 v -6 m 224,80 H 218.5081 0.40000001 M 224.4,180.4 v 6 6.18182 h 6 v 6.18182 h -6 v 6.18182 h 6 v 6.18181 h -6 v 6.18182 h 6 v 6.18182 h -6 v 6.18182 h 6 v 6.18182 h -6 v 6.18181 h 6 v 6.18182 h -6 V 260.4 m -55.88,-40 v 40 h 6 v -40 h -6 m -56.12,0 v 40 h 6 v -40 h -6 m -56.12,0 v 40 h 6 v -40 h -6" />
    <path
       id="path80"
       style="fill:none;stroke:#000000;stroke-width:0.8"
       d="M 0.40000001,270.4 H 218.5081 230.4 m -224,80 V 338.21818 H 0.40000001 v -6.18182 H 6.4 v -6.18181 H 0.40000001 v -6.18182 H 6.4 v -6.18182 H 0.40000001 v -6.18182 H 6.4 v -6.18182 H 0.40000001 v -6.18181 H 6.4 v -6.18182 H 0.40000001 v -6.18182 H 6.4 V 276.4 v -6 m 224,80 H 218.5081 0.40000001 M 224.4,270.4 v 6 6.18182 h 6 v 6.18182 h -6 v 6.18182 h 6 v 6.18181 h -6 v 6.18182 h 6 v 6.18182 h -6 v 6.18182 h 6 v 6.18182 h -6 v 6.18181 h 6 v 6.18182 h -6 V 350.4 m -55.88,-40 v 40 h 6 v -40 h -6 m -56.12,0 v 40 h 6 v -40 h -6 m -56.12,0 v 40 h 6 v -40 h -6" />
    <path
       id="path86"
       style="fill:none;stroke:#000000;stroke-width:0.8"
       d="m 240.4,180.4 h 162 12 m -168,80 v -12.18182 h -6 v -6.18182 h 6 v -6.18181 h -6 v -6.18182 h 6 v -6.18182 h -6 v -6.18182 h 6 v -6.18182 h -6 v -6.18181 h 6 v -6.18182 h -6 v -6.18182 h 6 V 186.4 v -6 m 168,80 h -12 -162 m 168,-80 v 6 6.18182 h 6 v 6.18182 h -6 v 6.18182 h 6 v 6.18181 h -6 v 6.18182 h 6 v 6.18182 h -6 v 6.18182 h 6 v 6.18182 h -6 v 6.18181 h 6 v 6.18182 h -6 V 260.4 m -56.16,-80 v 40 h 6 v -40 h -6 m -55.68,0 v 40 h 6 v -40 h -6" />
    <path
       id="path92"
       style="fill:none;stroke:#000000;stroke-width:0.8"
       d="m 240.4,270.4 h 162 12 m -168,80 v -12.18182 h -6 v -6.18182 h 6 v -6.18181 h -6 v -6.18182 h 6 v -6.18182 h -6 v -6.18182 h 6 v -6.18182 h -6 v -6.18181 h 6 v -6.18182 h -6 v -6.18182 h 6 V 276.4 v -6 m 168,80 h -12 -162 m 168,-80 v 6 6.18182 h 6 v 6.18182 h -6 v 6.18182 h 6 v 6.18181 h -6 v 6.18182 h 6 v 6.18182 h -6 v 6.18182 h 6 v 6.18182 h -6 v 6.18181 h 6 v 6.18182 h -6 V 350.4 m -56.16,-80 v 40 h 6 v -40 h -6 m -55.68,0 v 40 h 6 v -40 h -6" />
    <path
       id="path98"
       style="fill:none;stroke:#000000;stroke-width:0.8"
       d="m 240.4,360.4 h 162 12 m -168,80 v -12.18182 h -6 v -6.18182 h 6 v -6.18181 h -6 v -6.18182 h 6 v -6.18182 h -6 v -6.18182 h 6 v -6.18182 h -6 v -6.18181 h 6 v -6.18182 h -6 v -6.18182 h 6 V 366.4 v -6 m 168,80 h -12 -162 m 168,-80 v 6 6.18182 h 6 v 6.18182 h -6 v 6.18182 h 6 v 6.18181 h -6 v 6.18182 h 6 v 6.18182 h -6 v 6.18182 h 6 v 6.18182 h -6 v 6.18181 h 6 v 6.18182 h -6 V 440.4 m -56.16,-80 v 40 h 6 v -40 h -6 m -55.68,0 v 40 h 6 v -40 h -6" />
  </g>
</svg>
